<?xml version="1.0" standalone="no"?><!DOCTYPE svg PUBLIC "-//W3C//DTD SVG 1.1//EN" "http://www.w3.org/Graphics/SVG/1.1/DTD/svg11.dtd"><svg t="1595832895964" class="icon" viewBox="0 0 1126 1024" version="1.1" xmlns="http://www.w3.org/2000/svg" p-id="1153" xmlns:xlink="http://www.w3.org/1999/xlink" width="285.8984375" height="260"><defs><style type="text/css"></style></defs><path d="M730.0096 570.7264a39.3216 39.3216 0 1 0 78.6432 0 39.3216 39.3216 0 0 0-78.6432 0z"  p-id="1154"></path><path d="M982.6304 0a144.128 144.128 0 0 1 143.5648 144.128v666.112a122.624 122.624 0 0 1-25.6512 75.4176 125.2352 125.2352 0 0 1-173.9776 23.552l-109.056-83.3024a65.536 65.536 0 0 0-39.7824-13.6192h-175.616a144.64 144.64 0 0 1-143.5648 131.072h-243.2c-16.8448-0.512-33.2288 5.7344-45.568 17.2544l-36.1472 35.1232c-30.72 30.6176-80.384 30.6176-111.104 0A77.568 77.568 0 0 1 0 943.3088V510.976a144.64 144.64 0 0 1 104.8064-138.9056V144.128A144.128 144.128 0 0 1 248.9344 0h733.696z m-458.5472 799.232V510.976a65.536 65.536 0 0 0-65.536-65.536H144.128a65.536 65.536 0 0 0-65.536 65.536v432.3328l35.6352-37.1712a144.128 144.128 0 0 1 101.1712-41.472h243.2a65.536 65.536 0 0 0 65.4848-65.4848z m524.032 10.9568V144.0768a65.536 65.536 0 0 0-65.536-65.4848H248.9856a65.536 65.536 0 0 0-65.536 65.536v222.72h275.1488a144.128 144.128 0 0 1 144.128 144.128v222.72h175.0528c31.6416 0 62.464 10.5472 87.552 29.8496l108.9536 82.8416a45.568 45.568 0 0 0 64.512-8.3968 44.544 44.544 0 0 0 9.3696-27.8016z"  p-id="1155"></path><path d="M768.3072 224.8192a122.624 122.624 0 0 0-87.04 37.2224 39.3216 39.3216 0 0 0 56.6272 52.3776 43.52 43.52 0 0 1 30.4128-12.544 44.032 44.032 0 0 1 44.032 43.52c0 4.1472-8.96 15.1552-25.1904 27.2384a270.9504 270.9504 0 0 1-34.6112 19.9168 39.8336 39.8336 0 0 0-23.552 36.1472v43.008a39.3216 39.3216 0 1 0 78.592 0v-17.8688c8.704-4.864 17.152-10.24 25.1392-16.2304a113.7152 113.7152 0 0 0 58.2144-90.6752 122.624 122.624 0 0 0-122.624-122.112z" p-id="1156"></path></svg>